<svg xmlns="http://www.w3.org/2000/svg" version="1.1" xmlns:xlink="http://www.w3.org/1999/xlink" xmlns:svgjs="http://svgjs.dev/svgjs" width="2000" height="2000" viewBox="0 0 2000 2000"><g transform="matrix(1,0,0,1,-3.2258064516129252,-3.2258064516129252)"><svg viewBox="0 0 248 248" data-background-color="#e9e2da" preserveAspectRatio="xMidYMid meet" height="2000" width="2000" xmlns="http://www.w3.org/2000/svg" xmlns:xlink="http://www.w3.org/1999/xlink"><g id="tight-bounds" transform="matrix(1,0,0,1,0.4000000000000057,0.4000000000000057)"><svg viewBox="0 0 247.2 247.2" height="247.2" width="247.2"><g><svg viewBox="0 0 247.2 247.2" height="247.2" width="247.2"><g><svg viewBox="0 0 247.2 247.2" height="247.2" width="247.2"><g><svg viewBox="0 0 247.2 247.2" height="247.2" width="247.2"><g id="textblocktransform"><svg viewBox="0 0 247.2 247.2" height="247.2" width="247.2" id="textblock"><g><svg viewBox="0 0 247.2 247.2" height="247.2" width="247.2"><g transform="matrix(1,0,0,1,80.00090474013595,79.90080092267135)"><svg viewBox="0 0 87.1981905197281 87.39839815465727" height="87.39839815465727" width="87.1981905197281"><g id="icon-0"><svg xmlns="http://www.w3.org/2000/svg" data-name="Layer 1" viewBox="2.581347944754615 2.4887170388884288 94.74865205524539 94.96619560090436" x="0" y="0" height="87.39839815465727" width="87.1981905197281" class="icon-jxe-0" data-fill-palette-color="accent" id="jxe-0"><path d="M2.84 65.87L2.94 75.54 3 80.37V82.86A16.3 16.3 0 0 0 3.4 85.86 15.17 15.17 0 0 0 10.46 95.39 15 15 0 0 0 16.15 97.33 43 43 0 0 0 21.39 97.41L40.71 97.07 79.35 96.21C80.95 96.21 82.22 95.41 82.22 94.48S81 92.82 79.39 92.79H78.93L40.3 91.92 21 91.58H18.59A11 11 0 0 1 16.7 91.4 9.1 9.1 0 0 1 13.39 90 8.83 8.83 0 0 1 9.63 84.17 11.5 11.5 0 0 1 9.5 82.36V79.94L9.56 75.11 9.66 65.45 9.84 46.1V40.46A476.3 476.3 0 0 0 91.28 40.46V40.53L91.61 59.85 92 79.16C92.11 82.6 92.28 85.16 90.86 87.52A10.17 10.17 0 0 1 84.65 92.44C83.36 92.82 82.26 93.56 82.22 94.51S83.62 96.27 85.48 95.88L85.98 95.76A13.84 13.84 0 0 0 94.59 89.1 14 14 0 0 0 96.29 83.74C96.45 81.74 96.4 80.42 96.46 78.74L96.85 59.42 97.19 40.09 97.33 30.43V25.36A15.21 15.21 0 0 0 86.53 11.8 18.8 18.8 0 0 0 80.81 11.13H77.73A38 38 0 0 0 76 2.73 3.8 3.8 0 0 0 74.27 2.51 3.74 3.74 0 0 0 72.55 2.73 38 38 0 0 0 70.75 11L56.75 10.89H53.76A38 38 0 0 0 52 2.73 3.8 3.8 0 0 0 50.27 2.51 3.74 3.74 0 0 0 48.55 2.73 37.5 37.5 0 0 0 46.79 10.85H29.79A38 38 0 0 0 28 2.73 3.8 3.8 0 0 0 26.27 2.51 3.74 3.74 0 0 0 24.55 2.73 37.4 37.4 0 0 0 22.8 10.79H18A15.68 15.68 0 0 0 3.5 21.23 16.7 16.7 0 0 0 2.59 27.23L2.68 46.56ZM18.49 18.22H22.76A38.4 38.4 0 0 0 24.49 26.31 4.2 4.2 0 0 0 26.26 26.52 4.2 4.2 0 0 0 28 26.3 37.5 37.5 0 0 0 29.72 18.23L46.72 18.18A38.4 38.4 0 0 0 48.46 26.34 4.2 4.2 0 0 0 50.23 26.55 4.2 4.2 0 0 0 52 26.3 37.5 37.5 0 0 0 53.73 18.15H57.1L70.7 18.05A38 38 0 0 0 72.45 26.35 4.2 4.2 0 0 0 74.22 26.56 4.2 4.2 0 0 0 76 26.3 37.3 37.3 0 0 0 77.75 17.98H81.26A17 17 0 0 1 83.26 17.98 9 9 0 0 1 84.95 18.34 8.76 8.76 0 0 1 91.03 26.19L91.11 30.89 91.2 36.6A477.4 477.4 0 0 0 9.84 36.6V26.81A8.37 8.37 0 0 1 18.49 18.22" fill="#000000" data-fill-palette-color="accent"></path><path d="M65.29 73.06A64 64 0 0 1 35.29 73C35.11 73 34.68 73.65 34.29 74.5S33.73 76.13 33.86 76.25A27.9 27.9 0 0 0 41.41 80.61 25.5 25.5 0 0 0 59.14 80.61 28 28 0 0 0 66.66 76.22C66.81 76.12 66.66 75.37 66.25 74.51S65.46 73 65.29 73.06" fill="#000000" data-fill-palette-color="accent"></path><path d="M40.53 60.39A7 7 0 0 0 42.26 60.51 3.46 3.46 0 0 0 44 60.29 7.16 7.16 0 0 0 42.67 53.92 8.2 8.2 0 0 0 29.84 53.92 7.15 7.15 0 0 0 28.51 60.3 3.7 3.7 0 0 0 30.27 60.52 7.2 7.2 0 0 0 32 60.39 4.71 4.71 0 0 1 36.22 58.24 4.67 4.67 0 0 1 40.53 60.39" fill="#000000" data-fill-palette-color="accent"></path><path d="M64.24 50.81A8.19 8.19 0 0 0 57.84 53.92 7.12 7.12 0 0 0 56.55 60.29 3.4 3.4 0 0 0 58.26 60.51 7 7 0 0 0 60 60.39 5.24 5.24 0 0 1 68.48 60.39 7 7 0 0 0 70.25 60.51 3.7 3.7 0 0 0 72 60.29 7.16 7.16 0 0 0 70.64 53.91 8.14 8.14 0 0 0 64.24 50.81" fill="#000000" data-fill-palette-color="accent"></path></svg></g></svg></g><g id="text-0"><path d="M25.505 91.432l-1.033 3.053-23.809-8.051 1.033-3.053zM29.494 79.633l-4.712 13.937-2.591-0.876 4.713-13.937zM18.497 76.354l-4.296 12.704-2.572-0.869 4.296-12.704zM8.237 72.574l-4.68 13.84-2.591-0.876 4.68-13.84z" fill="#000000" data-fill-palette-color="primary"></path><path d="M63.696 36.435l0.391-0.275-5.451-16.964 2.702-1.902 5.953 19.284-4.282 3.014-16.146-12.109 2.702-1.902z" fill="#000000" data-fill-palette-color="primary"></path><path d="M125.409 20.134v0c-2.921 0.028-5.131-0.665-6.629-2.081-1.491-1.416-2.25-3.455-2.276-6.119v0l-0.034-3.416c-0.026-2.704 0.641-4.792 2.004-6.263 1.362-1.477 3.368-2.229 6.017-2.254v0c1.783-0.017 3.274 0.3 4.473 0.953 1.199 0.646 2.107 1.576 2.722 2.79 0.615 1.214 0.931 2.668 0.947 4.363v0l0.007 0.701c0.004 0.42-0.009 0.841-0.039 1.261-0.03 0.421-0.07 0.834-0.12 1.242v0l-2.928 0.028c0.021-0.631 0.032-1.227 0.034-1.79 0.001-0.563 0-1.081-0.005-1.555v0c-0.011-1.166-0.207-2.15-0.588-2.953-0.381-0.803-0.942-1.414-1.686-1.834-0.75-0.42-1.68-0.624-2.792-0.614v0c-1.654 0.016-2.889 0.506-3.707 1.47-0.818 0.971-1.218 2.347-1.2 4.13v0l0.018 1.83 0.024 0.386 0.018 1.83c0.008 0.8 0.133 1.52 0.377 2.162 0.243 0.642 0.618 1.19 1.124 1.646 0.513 0.463 1.16 0.812 1.942 1.049 0.782 0.236 1.712 0.349 2.789 0.339v0c1.24-0.012 2.398-0.189 3.472-0.532 1.075-0.336 2.08-0.79 3.017-1.361v0l-0.268 2.747c-0.849 0.551-1.834 0.991-2.956 1.32-1.129 0.336-2.381 0.511-3.757 0.525zM131.82 11.317l-13.654 0.133-0.023-2.399 13.654-0.133z" fill="#000000" data-fill-palette-color="primary"></path><path d="M191.502 44.266l-2.621-1.823 6.816-9.799c0.592-0.851 0.987-1.662 1.184-2.433 0.192-0.775 0.145-1.514-0.142-2.217-0.281-0.699-0.876-1.365-1.783-1.996v0c-0.829-0.577-1.655-0.92-2.478-1.03-0.823-0.11-1.61-0.03-2.36 0.241-0.746 0.265-1.43 0.685-2.053 1.26v0l0.821-2.178 0.568 0.395c0.668-0.592 1.419-1.032 2.254-1.318 0.839-0.292 1.744-0.36 2.718-0.203 0.969 0.162 1.979 0.609 3.03 1.34v0c1.246 0.867 2.092 1.806 2.537 2.817 0.439 1.007 0.529 2.077 0.269 3.209-0.263 1.138-0.844 2.353-1.741 3.644v0zM180.96 36.934l-2.621-1.823 10.961-15.759 2.621 1.823-2.747 3.7 0.018 0.223z" fill="#000000" data-fill-palette-color="primary"></path><path d="M221.598 90.797v0c-0.497-1.399-0.685-2.598-0.566-3.597 0.118-1.006 0.534-1.848 1.25-2.527 0.72-0.687 1.715-1.257 2.986-1.708v0l11.42-4.056 1.052 2.961-11.066 3.93c-1.188 0.422-1.967 1.004-2.336 1.747-0.369 0.743-0.326 1.756 0.13 3.039v0c0.261 0.735 0.59 1.409 0.989 2.023 0.398 0.614 0.852 1.165 1.363 1.652v0l-2.676 0.638c-0.507-0.475-0.985-1.071-1.434-1.789-0.447-0.712-0.818-1.483-1.112-2.313zM238.901 89.452l-4.628-13.03 2.414-0.857 4.727 13.307zM238.47 81.524l-1.021-2.874 5.074-1.813 1.455 2.881z" fill="#000000" data-fill-palette-color="primary"></path><path d="M7.322 161.982l-1.033-3.053 23.81-8.051 1.032 3.053zM11.312 173.781l-4.713-13.937 2.591-0.876 4.712 13.937zM22.042 169.712l-4.295-12.704 2.571-0.869 4.296 12.704zM32.491 166.49l-4.68-13.84 2.59-0.876 4.681 13.84z" fill="#000000" data-fill-palette-color="primary"></path><path d="M55.164 222.951l0.391 0.275 14.131-10.855 2.702 1.902-16.146 12.11-4.281-3.014 5.952-19.284 2.702 1.902z" fill="#000000" data-fill-palette-color="primary"></path><path d="M125.214 247.199v0c-2.921-0.028-5.117-0.765-6.588-2.209-1.464-1.444-2.183-3.499-2.156-6.163v0l0.033-3.416c0.026-2.704 0.734-4.778 2.124-6.222 1.39-1.451 3.41-2.163 6.061-2.137v0c1.783 0.017 3.267 0.364 4.453 1.039 1.187 0.669 2.075 1.617 2.667 2.843 0.591 1.226 0.879 2.686 0.862 4.38v0l-0.006 0.702c-0.004 0.42-0.025 0.84-0.063 1.26-0.038 0.42-0.086 0.833-0.145 1.239v0l-2.928-0.028c0.033-0.63 0.056-1.226 0.069-1.789 0.012-0.562 0.021-1.081 0.025-1.556v0c0.011-1.166-0.165-2.154-0.531-2.964-0.365-0.81-0.915-1.432-1.649-1.866-0.741-0.434-1.668-0.657-2.779-0.668v0c-1.654-0.016-2.899 0.45-3.735 1.398-0.836 0.954-1.263 2.323-1.281 4.105v0l-0.018 1.83 0.017 0.387-0.018 1.83c-0.008 0.8 0.104 1.523 0.335 2.169 0.231 0.646 0.595 1.202 1.092 1.668 0.504 0.473 1.144 0.835 1.921 1.086 0.777 0.252 1.704 0.383 2.783 0.393v0c1.24 0.012 2.401-0.143 3.481-0.464 1.081-0.315 2.095-0.749 3.043-1.303v0l-0.321 2.742c-0.859 0.534-1.853 0.955-2.982 1.263-1.135 0.314-2.391 0.465-3.766 0.451zM131.796 238.509l-13.655-0.133 0.024-2.399 13.654 0.132z" fill="#000000" data-fill-palette-color="primary"></path><path d="M202.462 218.757l-2.621 1.823-6.816-9.799c-0.592-0.851-1.215-1.504-1.869-1.957-0.659-0.45-1.369-0.662-2.128-0.638-0.754 0.021-1.584 0.346-2.491 0.977v0c-0.829 0.577-1.439 1.232-1.828 1.965-0.39 0.733-0.588 1.499-0.595 2.296-0.011 0.792 0.145 1.579 0.467 2.363v0l-1.756-1.528 0.567-0.394c-0.323-0.832-0.473-1.69-0.451-2.572 0.018-0.888 0.27-1.761 0.755-2.618 0.489-0.852 1.259-1.644 2.311-2.376v0c1.246-0.867 2.421-1.333 3.524-1.398 1.097-0.061 2.131 0.227 3.102 0.864 0.975 0.643 1.912 1.609 2.81 2.901v0zM191.92 226.089l-2.621 1.823-10.961-15.759 2.621-1.822 2.513 3.862 0.216 0.061z" fill="#000000" data-fill-palette-color="primary"></path><path d="M240.432 163.158v0c-0.497 1.399-1.107 2.448-1.83 3.148-0.726 0.706-1.58 1.097-2.563 1.172-0.992 0.079-2.124-0.107-3.395-0.558v0l-11.421-4.056 1.052-2.961 11.066 3.931c1.188 0.422 2.159 0.461 2.914 0.118 0.755-0.343 1.36-1.157 1.817-2.441v0c0.261-0.735 0.431-1.465 0.509-2.193 0.079-0.727 0.073-1.441-0.016-2.142v0l2.478 1.193c0.094 0.688 0.088 1.452-0.015 2.293-0.102 0.834-0.301 1.666-0.596 2.496zM226.157 153.287l-4.628 13.03-2.414-0.858 4.726-13.308zM221.491 159.711l-1.021 2.874-5.081-1.794 0.688-3.154z" fill="#000000" data-fill-palette-color="primary"></path><path d="M1.129 123.633c0-5.302 4.299-9.601 9.601-9.601 5.302 0 9.601 4.299 9.601 9.601 0 5.302-4.299 9.601-9.601 9.601-5.302 0-9.601-4.299-9.601-9.601z" fill="#000000" data-fill-palette-color="primary"></path><path d="M227.335 123.633c0-5.302 4.299-9.601 9.601-9.601 5.302 0 9.601 4.299 9.601 9.601 0 5.302-4.299 9.601-9.601 9.601-5.302 0-9.601-4.299-9.601-9.601z" fill="#000000" data-fill-palette-color="primary"></path></g><g id="text-1"></g></svg></g></svg></g></svg></g></svg></g></svg></g><defs></defs></svg><rect width="247.2" height="247.2" fill="none" stroke="none" visibility="hidden"></rect></g></svg></g></svg>