<svg xmlns="http://www.w3.org/2000/svg" version="1.1" xmlns:xlink="http://www.w3.org/1999/xlink" xmlns:svgjs="http://svgjs.dev/svgjs" width="128" height="128" viewBox="0 0 128 128"><g transform="matrix(0.8046875,0,0,0.8046875,12.397735167685035,10.837022212721024)"><svg viewBox="0 0 59 60" data-background-color="#e9e2da" preserveAspectRatio="xMidYMid meet" height="130" width="128" xmlns="http://www.w3.org/2000/svg" xmlns:xlink="http://www.w3.org/1999/xlink"><g id="tight-bounds" transform="matrix(1,0,0,1,0.06395635520829046,0.49637100000001055)"><svg viewBox="0 0 58.87208728958342 59.00725799999999" height="59.00725799999999" width="58.87208728958342"><g><svg viewBox="0 0 58.87208728958342 59.00725799999999" height="59.00725799999999" width="58.87208728958342"><g><svg viewBox="0 0 58.87208728958342 59.00725799999999" height="59.00725799999999" width="58.87208728958342"><g><svg viewBox="0 0 58.87208728958342 59.00725799999999" height="59.00725799999999" width="58.87208728958342"><g id="textblocktransform"><svg viewBox="0 0 58.87208728958342 59.00725799999999" height="59.00725799999999" width="58.87208728958342" id="textblock"><g><svg viewBox="0 0 58.87208728958342 59.00725799999999" height="59.00725799999999" width="58.87208728958342"><g><svg viewBox="0 0 58.87208728958342 59.00725799999999" height="59.00725799999999" width="58.87208728958342"><g><svg xmlns="http://www.w3.org/2000/svg" data-name="Layer 1" viewBox="2.581347944754615 2.4887170388884288 94.74865205524539 94.96619560090436" x="0" y="0" height="59.00725799999999" width="58.87208728958342" class="icon-icon-0" data-fill-palette-color="accent" id="icon-0"><path d="M2.84 65.87L2.94 75.54 3 80.37V82.86A16.3 16.3 0 0 0 3.4 85.86 15.17 15.17 0 0 0 10.46 95.39 15 15 0 0 0 16.15 97.33 43 43 0 0 0 21.39 97.41L40.71 97.07 79.35 96.21C80.95 96.21 82.22 95.41 82.22 94.48S81 92.82 79.39 92.79H78.93L40.3 91.92 21 91.58H18.59A11 11 0 0 1 16.7 91.4 9.1 9.1 0 0 1 13.39 90 8.83 8.83 0 0 1 9.63 84.17 11.5 11.5 0 0 1 9.5 82.36V79.94L9.56 75.11 9.66 65.45 9.84 46.1V40.46A476.3 476.3 0 0 0 91.28 40.46V40.53L91.61 59.85 92 79.16C92.11 82.6 92.28 85.16 90.86 87.52A10.17 10.17 0 0 1 84.65 92.44C83.36 92.82 82.26 93.56 82.22 94.51S83.62 96.27 85.48 95.88L85.98 95.76A13.84 13.84 0 0 0 94.59 89.1 14 14 0 0 0 96.29 83.74C96.45 81.74 96.4 80.42 96.46 78.74L96.85 59.42 97.19 40.09 97.33 30.43V25.36A15.21 15.21 0 0 0 86.53 11.8 18.8 18.8 0 0 0 80.81 11.13H77.73A38 38 0 0 0 76 2.73 3.8 3.8 0 0 0 74.27 2.51 3.74 3.74 0 0 0 72.55 2.73 38 38 0 0 0 70.75 11L56.75 10.89H53.76A38 38 0 0 0 52 2.73 3.8 3.8 0 0 0 50.27 2.51 3.74 3.74 0 0 0 48.55 2.73 37.5 37.5 0 0 0 46.79 10.85H29.79A38 38 0 0 0 28 2.73 3.8 3.8 0 0 0 26.27 2.51 3.74 3.74 0 0 0 24.55 2.73 37.4 37.4 0 0 0 22.8 10.79H18A15.68 15.68 0 0 0 3.5 21.23 16.7 16.7 0 0 0 2.59 27.23L2.68 46.56ZM18.49 18.22H22.76A38.4 38.4 0 0 0 24.49 26.31 4.2 4.2 0 0 0 26.26 26.52 4.2 4.2 0 0 0 28 26.3 37.5 37.5 0 0 0 29.72 18.23L46.72 18.18A38.4 38.4 0 0 0 48.46 26.34 4.2 4.2 0 0 0 50.23 26.55 4.2 4.2 0 0 0 52 26.3 37.5 37.5 0 0 0 53.73 18.15H57.1L70.7 18.05A38 38 0 0 0 72.45 26.35 4.2 4.2 0 0 0 74.22 26.56 4.2 4.2 0 0 0 76 26.3 37.3 37.3 0 0 0 77.75 17.98H81.26A17 17 0 0 1 83.26 17.98 9 9 0 0 1 84.95 18.34 8.76 8.76 0 0 1 91.03 26.19L91.11 30.89 91.2 36.6A477.4 477.4 0 0 0 9.84 36.6V26.81A8.37 8.37 0 0 1 18.49 18.22" fill="#ffffff" data-fill-palette-color="accent"></path><path d="M65.29 73.06A64 64 0 0 1 35.29 73C35.11 73 34.68 73.65 34.29 74.5S33.73 76.13 33.86 76.25A27.9 27.9 0 0 0 41.41 80.61 25.5 25.5 0 0 0 59.14 80.61 28 28 0 0 0 66.66 76.22C66.81 76.12 66.66 75.37 66.25 74.51S65.46 73 65.29 73.06" fill="#ffffff" data-fill-palette-color="accent"></path><path d="M40.53 60.39A7 7 0 0 0 42.26 60.51 3.46 3.46 0 0 0 44 60.29 7.16 7.16 0 0 0 42.67 53.92 8.2 8.2 0 0 0 29.84 53.92 7.15 7.15 0 0 0 28.51 60.3 3.7 3.7 0 0 0 30.27 60.52 7.2 7.2 0 0 0 32 60.39 4.71 4.71 0 0 1 36.22 58.24 4.67 4.67 0 0 1 40.53 60.39" fill="#ffffff" data-fill-palette-color="accent"></path><path d="M64.24 50.81A8.19 8.19 0 0 0 57.84 53.92 7.12 7.12 0 0 0 56.55 60.29 3.4 3.4 0 0 0 58.26 60.51 7 7 0 0 0 60 60.39 5.24 5.24 0 0 1 68.48 60.39 7 7 0 0 0 70.25 60.51 3.7 3.7 0 0 0 72 60.29 7.16 7.16 0 0 0 70.64 53.91 8.14 8.14 0 0 0 64.24 50.81" fill="#ffffff" data-fill-palette-color="accent"></path></svg></g></svg></g></svg></g></svg></g></svg></g></svg></g></svg></g><defs></defs></svg><rect width="58.87208728958342" height="59.00725799999999" fill="none" stroke="none" visibility="hidden"></rect></g></svg></g></svg>